<svg fill="none" height="50" viewBox="0 0 171 50" width="171" xmlns="http://www.w3.org/2000/svg" xmlns:xlink="http://www.w3.org/1999/xlink"><linearGradient id="a" gradientUnits="userSpaceOnUse" x1="23.8319" x2="23.8319" y1="2" y2="49.9989"><stop offset=".3" stop-color="#e857cc"/><stop offset=".8" stop-color="#00e9c9"/></linearGradient><path d="m34.4735 26.7423h13.1832c-.3904 12.9111-10.9082 23.2577-23.8255 23.2577s-23.435051-10.3466-23.82554073-23.2577h13.28514073l10.5913 23.0782zm-25.72426-9.8992c-3.47763 1.2994-7.06561 3.824-8.619077 6.5824-.0707406.6725-.1160148 1.3506-.130163 2.0374h12.7051zm16.16006-10.14711c.4103.72378-11.5336 1.44471-14.8669.77507-.31128-.06269-.56877-.20232-.77817-.40178l2.82117 6.14922c.2264.0399.4046.114.5178.2394 1.2309 1.3421 3.4861.8776 4.6151 1.7553.4584.3562-.9168.1852-3.9473.587l.6197 1.3506h19.9829l1.2761-2.7811c-.6734.3733-1.1912.6782-1.477.7893-1.18.4645-2.974.3106-2.5127.2593.4612-.0512 1.6921-.8263 2.5636-1.2395.3452-.1624 1.0951-.6696 2.1166-1.3165l2.6542-5.78447c-4.0407-3.18006-9.1313-5.07783-14.6632-5.07783-3.0277 0-5.9253.5699-8.5908 1.60712 3.5059 1.1683 9.2643 2.37934 9.6689 3.08887zm16.2138 5.55941-6.0611 13.2075h12.6032c-.0396-1.7781-.2716-3.5078-.6734-5.169-.8234-.0428-1.6242-.2309-2.1392-.3847-.8716-.2593-2.0006-.0513-3.4352 0s-1.129-.4132-.9225-.9803c.1981-.5442 3.7946-1.9918 5.3509-2.1542-.5801-1.4019-1.2875-2.7355-2.1109-3.9865-.0368-.0171-.0764-.0341-.1132-.0512-.7782-.3933-1.6299-.5215-2.4986-.4816zm-33.76038 1.5672-1.59592-3.4792c-.46689.5442-.90831 1.1084-1.32427 1.6954.79513 1.1256 1.66383 1.8779 2.92019 1.7838zm10.34228 11.6403h12.3571l1.9694-4.2885h-16.2959zm6.1771 13.4611 5.5914-12.1817h-11.1799z" fill="url(#a)"/><path d="m80.096 23.432h-5.664l-.84 2.568h-5.592l6.216-16.992h6.144l6.192 16.992h-5.616zm-1.296-4.008-1.536-4.728-1.536 4.728zm13.4505-10.416v9.576c0 .784.168 1.408.504 1.872.352.448.912.672 1.68.672s1.336-.224 1.704-.672c.368-.464.552-1.088.552-1.872v-9.576h5.3045v9.576c0 1.616-.336 3-1.008 4.152-.672 1.136-1.5925 1.992-2.7605 2.568s-2.472.864-3.912.864-2.72-.288-3.84-.864c-1.104-.576-1.968-1.432-2.592-2.568s-.936-2.52-.936-4.152v-9.576zm19.8665 16.992-3.192-6.096h-.024v6.096h-5.328v-16.992h7.92c1.376 0 2.552.248 3.528.744.976.48 1.704 1.144 2.184 1.992.496.832.744 1.776.744 2.832 0 1.136-.32 2.144-.96 3.024-.624.88-1.528 1.512-2.712 1.896l3.696 6.504zm-3.216-9.648h2.112c.512 0 .896-.112 1.152-.336.256-.24.384-.608.384-1.104 0-.448-.136-.8-.408-1.056-.256-.256-.632-.384-1.128-.384h-2.112zm18.31 9.816c-1.6 0-3.072-.376-4.416-1.128-1.328-.752-2.384-1.792-3.168-3.12s-1.176-2.824-1.176-4.488.392-3.16 1.176-4.488 1.84-2.36 3.168-3.096c1.344-.752 2.816-1.128 4.416-1.128s3.064.376 4.392 1.128c1.328.736 2.376 1.768 3.144 3.096.784 1.328 1.176 2.824 1.176 4.488s-.392 3.16-1.176 4.488c-.768 1.328-1.824 2.368-3.168 3.12-1.328.752-2.784 1.128-4.368 1.128zm0-4.968c1.056 0 1.872-.336 2.448-1.008.576-.688.864-1.608.864-2.76 0-1.168-.288-2.088-.864-2.76-.576-.688-1.392-1.032-2.448-1.032-1.072 0-1.896.344-2.472 1.032-.576.672-.864 1.592-.864 2.76 0 1.152.288 2.072.864 2.76.576.672 1.4 1.008 2.472 1.008zm18.458 4.8-3.192-6.096h-.024v6.096h-5.328v-16.992h7.92c1.376 0 2.552.248 3.528.744.976.48 1.704 1.144 2.184 1.992.496.832.744 1.776.744 2.832 0 1.136-.32 2.144-.96 3.024-.624.88-1.528 1.512-2.712 1.896l3.696 6.504zm-3.216-9.648h2.112c.512 0 .896-.112 1.152-.336.256-.24.384-.608.384-1.104 0-.448-.136-.8-.408-1.056-.256-.256-.632-.384-1.128-.384h-2.112zm26.35-7.344-6.096 11.832v5.16h-5.328v-5.16l-6.096-11.832h6.096l2.712 6.024 2.712-6.024z" fill="#fff"/><path d="m74.732 38.144c0 .424-.1.824-.3 1.2s-.52.684-.96.924c-.44.232-1.004.348-1.692.348h-1.512v3.384h-1.368v-8.34h2.88c.64 0 1.18.112 1.62.336.448.216.78.512.996.888.224.376.336.796.336 1.26zm-2.952 1.356c.52 0 .908-.116 1.164-.348.256-.24.384-.576.384-1.008 0-.912-.516-1.368-1.548-1.368h-1.512v2.724zm16.5087 4.5-1.92-3.336h-1.044v3.336h-1.368v-8.34h2.88c.64 0 1.18.112 1.62.336.448.224.78.524.996.9.224.376.336.796.336 1.26 0 .544-.16 1.04-.48 1.488-.312.44-.796.74-1.452.9l2.064 3.456zm-2.964-4.428h1.512c.512 0 .896-.128 1.152-.384.264-.256.396-.6.396-1.032s-.128-.768-.384-1.008c-.256-.248-.644-.372-1.164-.372h-1.512zm17.9383 4.512c-.776 0-1.492-.18-2.148-.54-.648-.368-1.1642-.876-1.5482-1.524-.376-.656-.564-1.392-.564-2.208s.188-1.548.564-2.196c.384-.648.9002-1.152 1.5482-1.512.656-.368 1.372-.552 2.148-.552.784 0 1.5.184 2.148.552.656.36 1.172.864 1.548 1.512s.564 1.38.564 2.196-.188 1.552-.564 2.208c-.376.648-.892 1.156-1.548 1.524-.648.36-1.364.54-2.148.54zm0-1.188c.552 0 1.044-.124 1.476-.372.432-.256.768-.616 1.008-1.08.248-.472.372-1.016.372-1.632s-.124-1.156-.372-1.62c-.24-.464-.576-.82-1.008-1.068s-.924-.372-1.476-.372-1.044.124-1.476.372-.772.604-1.02 1.068c-.24.464-.36 1.004-.36 1.62s.12 1.16.36 1.632c.248.464.588.824 1.02 1.08.432.248.924.372 1.476.372zm18.074-7.236v6.012c0 .744-.228 1.332-.684 1.764-.448.432-1.04.648-1.776.648s-1.332-.216-1.788-.648c-.448-.432-.672-1.02-.672-1.764h1.38c.008.368.1.66.276.876.184.216.452.324.804.324s.62-.108.804-.324c.184-.224.276-.516.276-.876v-6.012zm11.513 1.104v2.448h2.88v1.116h-2.88v2.556h3.24v1.116h-4.608v-8.352h4.608v1.116zm12.389 3.048c0-.816.188-1.548.564-2.196.384-.648.9-1.152 1.548-1.512.656-.368 1.372-.552 2.148-.552.888 0 1.676.22 2.364.66.696.432 1.2 1.048 1.512 1.848h-1.644c-.216-.44-.516-.768-.9-.984s-.828-.324-1.332-.324c-.552 0-1.044.124-1.476.372s-.772.604-1.02 1.068c-.24.464-.36 1.004-.36 1.62s.12 1.156.36 1.62c.248.464.588.824 1.02 1.08.432.248.924.372 1.476.372.504 0 .948-.108 1.332-.324s.684-.544.9-.984h1.644c-.312.8-.816 1.416-1.512 1.848-.688.432-1.476.648-2.364.648-.784 0-1.5-.18-2.148-.54-.648-.368-1.164-.876-1.548-1.524-.376-.648-.564-1.38-.564-2.196zm23.046-4.152v1.116h-2.22v7.224h-1.368v-7.224h-2.232v-1.116z" fill="#fff"/><path d="m68 30.5h101" stroke="#fff"/></svg>